HIERARCHY
ROOT hip
{
	OFFSET 0.000000 0.000000 0.000000 
	CHANNELS 6 Xposition Yposition Zposition Xrotation Zrotation Yrotation
	JOINT abdomen
	{
		OFFSET 0.000000 3.402643 0.000000 
		CHANNELS 3 Xrotation Zrotation Yrotation
		JOINT chest
		{
			OFFSET 0.000000 8.438565 -0.680529 
			CHANNELS 3 Xrotation Zrotation Yrotation
			JOINT neck
			{
				OFFSET 0.000000 10.207942 -0.272212 
				CHANNELS 3 Xrotation Zrotation Yrotation
				JOINT head
				{
					OFFSET 0.000000 3.130431 0.000000 
					CHANNELS 3 Xrotation Zrotation Yrotation
					End Site
					{
						OFFSET 0.000000 3.130435 0.000000 
					}
				}
			}
			JOINT lCollar
			{
				OFFSET 3.470700 6.669187 -0.816635 
				CHANNELS 3 Yrotation Zrotation Xrotation
				JOINT lShldr
				{
					OFFSET 3.198488 0.000000 0.000000 
					CHANNELS 3 Zrotation Yrotation Xrotation
					JOINT lForeArm
					{
						OFFSET 10.139888 0.000000 0.000000 
						CHANNELS 3 Yrotation Zrotation Xrotation
						JOINT lHand
						{
							OFFSET 8.370511 0.000000 0.000000 
							CHANNELS 3 Zrotation Yrotation Xrotation
							End Site
							{
								OFFSET 4.083176 0.000000 0.000000 
							}
						}
					}
				}
			}
			JOINT rCollar
			{
				OFFSET -3.470700 6.669187 -0.816635 
				CHANNELS 3 Yrotation Zrotation Xrotation
				JOINT rShldr
				{
					OFFSET -3.198488 0.000000 0.000000 
					CHANNELS 3 Zrotation Yrotation Xrotation
					JOINT rForeArm
					{
						OFFSET -10.139888 0.000000 0.000000 
						CHANNELS 3 Yrotation Zrotation Xrotation
						JOINT rHand
						{
							OFFSET -8.370511 0.000000 0.000000 
							CHANNELS 3 Zrotation Yrotation Xrotation
							End Site
							{
								OFFSET -4.083176 0.000000 0.000000 
							}
						}
					}
				}
			}
		}
	}
	JOINT lThigh
	{
		OFFSET 5.308129 -1.633274 1.361059 
		CHANNELS 3 Xrotation Zrotation Yrotation
		JOINT lShin
		{
			OFFSET -2.041588 -20.007561 0.000000 
			CHANNELS 3 Xrotation Zrotation Yrotation
			JOINT lFoot
			{
				OFFSET 0.000000 -19.190928 -1.224953 
				CHANNELS 3 Xrotation Yrotation Zrotation
				End Site
				{
					OFFSET 0.000000 -2.449906 4.627600 
				}
			}
		}
	}
	JOINT rThigh
	{
		OFFSET -5.308129 -1.633274 1.361059 
		CHANNELS 3 Xrotation Zrotation Yrotation
		JOINT rShin
		{
			OFFSET 2.041588 -20.007561 0.000000 
			CHANNELS 3 Xrotation Zrotation Yrotation
			JOINT rFoot
			{
				OFFSET 0.000000 -19.190928 -1.224953 
				CHANNELS 3 Xrotation Yrotation Zrotation
				End Site
				{
					OFFSET 0.000000 -2.449906 4.627600 
				}
			}
		}
	}
}
MOTION
Frames: 19
Frame Time: 0.016667
-0.472207 39.486675 -0.524042 3.031650 3.052370 -24.095900 -13.168000 -2.232750 -5.357420 17.264700 4.611550 -3.487540 14.613100 20.628099 -13.288400 17.294001 11.216100 -5.074840 2.000000 -2.000000 0.000000 101.335999 -170.326996 -2.135230 56.758301 -0.289794 0.114399 0.073247 -0.101209 -171.667999 -2.000000 2.000000 0.000000 -120.338997 123.269997 7.595130 -127.919998 0.136827 0.090394 -0.172032 0.164386 148.557007 -22.214891 11.626014 19.752504 56.861706 1.451562 3.799800 -29.118599 11.501184 8.014849 -32.705055 -8.698246 10.416614 47.296329 -2.196785 -3.242020 -16.761793 3.215089 0.178420 
-0.471141 39.486290 -0.489889 2.826230 3.033420 -24.859800 -13.246000 -1.895360 -5.894720 17.240700 5.479150 -3.763720 14.691800 20.487900 -12.647700 17.306700 11.472700 -4.777300 2.000000 -2.000000 0.000000 100.301003 -170.725006 -3.142030 56.797401 -0.289716 0.114450 0.082376 -0.100286 -171.266998 -2.000000 2.000000 0.000000 -120.249001 122.891998 8.797220 -128.076004 0.136554 0.090181 -0.172691 0.164567 148.313004 -21.772831 11.612076 20.112890 56.871098 1.450120 3.789091 -29.228954 11.690296 8.156245 -32.720558 -8.560956 10.647428 47.287125 -2.191796 -3.249735 -16.657869 3.671798 0.351936 
-0.481011 39.464928 -0.491141 2.992560 3.062230 -25.406099 -13.125800 -2.234980 -5.446500 17.392700 4.475620 -3.517880 14.263400 20.856701 -13.568600 17.197800 11.287300 -5.174320 2.000000 -2.000000 0.000000 101.346001 -170.220993 -1.656470 56.592300 -0.290125 0.114181 0.072874 -0.100669 -171.432999 -2.000000 2.000000 0.000000 -120.507004 123.650002 7.144980 -128.291000 0.136180 0.089887 -0.171189 0.164150 148.869003 -21.829868 11.764322 20.266426 56.900238 1.459563 3.792997 -29.594568 11.833803 8.360724 -33.009087 -8.316985 10.842068 47.220264 -2.169744 -3.261574 -16.504387 3.930494 0.446373 
-0.497337 39.451412 -0.481112 3.099770 2.935160 -25.954100 -13.064000 -2.246710 -5.533780 17.549999 4.329990 -3.546870 14.228400 20.890800 -13.742800 17.204000 11.210800 -5.240600 2.000000 -2.000000 0.000000 101.453003 -170.084000 -1.480360 56.543499 -0.290222 0.114117 0.072936 -0.100759 -171.472000 -2.000000 2.000000 0.000000 -120.389000 123.513000 7.096490 -128.320999 0.136129 0.089847 -0.170426 0.163932 149.153000 -21.803055 12.077067 20.443420 56.947960 1.479461 3.782285 -29.866354 11.900270 8.497691 -33.180904 -7.934920 10.981529 47.141407 -2.167848 -3.243177 -16.401800 4.121326 0.514652 
-0.517031 39.455399 -0.480027 3.148400 2.837510 -26.318300 -12.967200 -2.217500 -5.511000 17.638599 4.223050 -3.534800 14.315600 20.697800 -14.008500 17.241400 10.951800 -5.360490 2.000000 -2.000000 0.000000 101.580002 -169.723999 -1.127950 56.465302 -0.290377 0.114014 0.082145 -0.099947 -171.121002 -2.000000 2.000000 0.000000 -120.857002 123.500999 6.393390 -128.360001 0.136061 0.089793 -0.170111 0.163841 149.270004 -21.726664 12.295880 20.605761 56.976849 1.480309 3.771986 -29.690760 11.920256 8.461377 -33.275517 -7.687197 10.979845 47.132103 -2.154062 -3.237676 -16.359446 4.262550 0.558261 
-0.538118 39.463127 -0.480503 3.177890 2.895940 -26.557699 -13.057900 -2.215700 -5.699920 17.559999 4.281270 -3.621720 14.585600 20.509899 -13.880700 17.306801 10.863000 -5.338030 2.000000 -2.000000 0.000000 101.393997 -169.792007 -1.225770 56.514198 -0.290280 0.114079 0.081200 -0.098539 -170.514999 -2.000000 2.000000 0.000000 -121.033997 123.609001 6.344300 -128.604004 0.135638 0.089457 -0.169744 0.163734 149.406006 -21.676060 12.289741 20.695841 56.908958 1.477131 3.782285 -29.693745 12.065632 8.542791 -33.368778 -7.637554 11.004530 47.102753 -2.155247 -3.238946 -16.317608 4.396871 0.597161 
-0.556853 39.471497 -0.471841 3.148890 3.013030 -26.787201 -13.110400 -2.254660 -5.860100 17.549999 4.320240 -3.702620 14.708700 20.537901 -13.759300 17.338400 10.899700 -5.294380 2.000000 -2.000000 0.000000 101.266998 -169.889999 -1.040450 56.582500 -0.290144 0.114168 0.081260 -0.098631 -170.554001 -2.000000 2.000000 0.000000 -121.170998 123.677002 6.324600 -128.710999 0.135452 0.089308 -0.170059 0.163826 149.289001 -21.598522 12.162467 20.744307 56.800625 1.488801 3.772866 -29.930267 12.374517 8.791780 -33.458447 -7.651777 11.144466 47.082985 -2.162014 -3.242157 -16.273853 4.482162 0.653833 
-0.574644 39.491829 -0.449190 2.973110 3.101300 -26.967600 -13.051700 -2.286620 -5.862700 17.589600 4.222870 -3.704410 14.638400 20.703501 -13.841900 17.351101 10.956200 -5.328120 2.000000 -2.000000 0.000000 101.248001 -169.725998 -0.405298 56.475101 -0.290358 0.114027 0.081245 -0.098608 -170.544998 -2.000000 2.000000 0.000000 -121.639999 123.821999 5.826190 -128.858002 0.135199 0.089105 -0.170374 0.163917 149.171997 -21.314846 11.966347 20.868441 56.644646 1.477454 3.771900 -29.730721 12.645744 8.886356 -33.349667 -7.739315 11.254557 47.073334 -2.158558 -3.240977 -16.307894 4.623654 0.711148 
-0.598720 39.511768 -0.415820 2.767810 3.131120 -27.133600 -12.992500 -2.302980 -5.878880 17.629101 4.125490 -3.706340 14.690900 20.747900 -13.757100 17.383200 11.002400 -5.280320 2.000000 -2.000000 0.000000 101.121002 -169.453003 0.005498 56.260300 -0.290785 0.113743 0.080763 -0.097878 -170.231995 -2.000000 2.000000 0.000000 -121.992996 123.987000 5.427060 -128.936005 0.135064 0.088996 -0.170795 0.164038 149.016006 -20.912510 11.806576 21.059851 56.379574 1.500740 3.763716 -29.534178 12.695888 8.890084 -33.167904 -7.807939 11.292119 47.082035 -2.178350 -3.239334 -16.402065 4.728268 0.751699 
-0.627456 39.516411 -0.404862 2.758240 3.209180 -27.140100 -13.149800 -2.241400 -6.102090 17.471500 4.358930 -3.818010 15.085500 20.259100 -13.262300 17.395800 10.849400 -5.108840 2.000000 -2.000000 0.000000 100.828003 -169.559998 -0.024051 56.152802 -0.290998 0.113601 0.080763 -0.097878 -170.231995 -2.000000 2.000000 0.000000 -121.818001 124.067001 5.963980 -128.994003 0.134963 0.088914 -0.170821 0.164045 149.005997 -20.876501 11.745838 21.098183 56.242374 1.511027 3.763751 -29.516953 12.623071 8.880646 -33.178375 -7.860103 11.314351 47.091579 -2.184971 -3.241829 -16.457729 4.749950 0.755536 
-0.660013 39.525803 -0.422266 2.827400 3.452830 -26.977699 -13.564800 -2.056260 -6.466330 16.988100 5.039090 -4.014660 15.845300 19.148800 -12.432900 17.418501 10.486600 -4.828260 2.000000 -2.000000 0.000000 100.203003 -170.117004 -0.269498 56.201698 -0.290901 0.113666 0.080703 -0.097786 -170.192993 -2.000000 2.000000 0.000000 -121.515999 124.157997 7.194240 -129.033005 0.134896 0.088860 -0.171136 0.164135 148.889008 -21.043213 11.537053 20.997992 56.143490 1.518906 3.741750 -29.489315 12.599496 8.835668 -33.355782 -8.063070 11.342249 47.132248 -2.161424 -3.250302 -16.446465 4.718069 0.737421 
-0.698298 39.543819 -0.427709 2.779320 3.726090 -26.899099 -13.620100 -2.013750 -6.547110 17.036200 5.214810 -4.050400 16.459801 18.235701 -11.689400 17.483500 10.169700 -4.528260 2.000000 -2.000000 0.000000 99.880699 -170.048004 -0.161916 56.113800 -0.291075 0.113549 0.080329 -0.097214 -169.949005 -2.000000 2.000000 0.000000 -121.623001 124.099998 7.545940 -128.886993 0.135148 0.089064 -0.171163 0.164142 148.878998 -20.984816 11.254935 21.070444 55.820389 1.531158 3.739309 -29.308683 12.488831 8.762424 -33.466690 -8.280050 11.452282 47.240528 -2.159840 -3.266703 -16.463837 4.648479 0.721120 
-0.738955 39.550121 -0.424121 2.691670 3.862930 -26.878799 -13.254000 -2.153570 -6.421620 17.665800 4.769340 -3.971010 16.984501 17.433901 -10.893600 17.597500 9.831810 -4.139010 2.000000 -2.000000 0.000000 100.172997 -169.307007 0.230451 55.859901 -0.291577 0.113210 0.080031 -0.096755 -169.753998 -2.000000 2.000000 0.000000 -121.591003 123.611000 7.438040 -128.457001 0.135892 0.089659 -0.170637 0.163993 149.074005 -20.875643 11.113470 21.168146 55.722363 1.534081 3.733668 -29.229481 12.323183 8.666018 -33.454948 -8.395670 11.510389 47.337578 -2.167440 -3.257734 -16.515266 4.645316 0.722323 
-0.777048 39.549862 -0.436829 2.623370 3.931440 -26.763100 -13.157200 -2.197620 -6.400980 17.833099 4.584680 -3.957400 17.890200 15.882400 -9.595140 17.692200 9.266910 -3.563170 2.000000 -2.000000 0.000000 100.250999 -169.054001 0.484952 55.605999 -0.292078 0.112869 0.079795 -0.096387 -169.597000 -2.000000 2.000000 0.000000 -121.030998 123.066002 8.337810 -127.851997 0.136947 0.090488 -0.170269 0.163887 149.210999 -20.776409 11.046542 21.188915 55.614170 1.537247 3.719273 -29.183876 12.102807 8.546891 -33.425827 -8.480226 11.521543 47.454418 -2.167211 -3.245498 -16.622957 4.621043 0.713781 
-0.807864 39.549221 -0.447195 2.535330 3.951220 -26.699900 -13.201400 -2.181860 -6.275550 17.765100 4.438110 -3.887410 18.814899 13.831100 -8.119000 17.713699 8.572330 -2.925820 2.000000 -2.000000 0.000000 100.211998 -169.026001 0.914706 55.342300 -0.292596 0.112512 0.079603 -0.096087 -169.470001 -2.000000 2.000000 0.000000 -120.541000 122.737000 9.363990 -127.294998 0.137924 0.091239 -0.169770 0.163742 149.397003 -20.598976 11.021878 21.305130 55.506199 1.548533 3.719089 -29.157091 11.946501 8.442199 -33.357563 -8.521905 11.541056 47.505047 -2.148596 -3.265582 -16.635025 4.565491 0.716371 
-0.836412 39.550121 -0.441227 2.378820 3.990710 -26.621201 -13.158100 -2.213590 -6.138410 17.824699 4.194460 -3.802950 19.810301 11.435200 -6.495190 17.792500 7.771530 -2.199120 2.000000 -2.000000 0.000000 100.232002 -168.977997 1.227320 55.117699 -0.293037 0.112207 0.079441 -0.095834 -169.363007 -2.000000 2.000000 0.000000 -120.060997 122.329002 10.361100 -126.787003 0.138822 0.091917 -0.169376 0.163626 149.542999 -20.389538 10.933648 21.430452 55.408031 1.559007 3.717566 -29.094315 11.868200 8.389027 -33.225487 -8.639927 11.512692 47.592537 -2.161892 -3.268853 -16.725748 4.562240 0.729515 
-0.873235 39.558357 -0.450442 2.349620 4.049340 -26.435301 -13.132100 -2.182900 -6.056080 17.932899 4.048500 -3.749360 20.852900 8.840640 -4.722470 17.991699 6.967580 -1.352150 2.000000 -2.000000 0.000000 100.084999 -168.860992 1.305720 54.844200 -0.293571 0.111832 0.079178 -0.095418 -169.186996 -2.000000 2.000000 0.000000 -119.519997 121.688004 11.669700 -126.074997 0.140093 0.092855 -0.169167 0.163564 149.621002 -20.358191 10.893773 21.406345 55.339169 1.567351 3.714194 -28.997784 11.746160 8.298598 -33.166157 -8.704469 11.480126 47.641354 -2.162517 -3.268176 -16.870136 4.465847 0.704475 
-0.922773 39.567242 -0.491293 2.467040 4.029480 -26.261801 -13.188500 -2.079360 -5.861280 17.894199 3.902050 -3.628160 21.631201 6.286680 -3.015770 18.164101 6.184790 -0.499861 2.000000 -2.000000 0.000000 100.027000 -168.725006 1.657600 54.541500 -0.294161 0.111415 0.078916 -0.095001 -169.011993 -2.000000 2.000000 0.000000 -118.872002 121.016998 13.097100 -125.235001 0.141605 0.093940 -0.168800 0.163454 149.757996 -20.503380 11.011040 21.310120 55.270470 1.566416 3.706240 -28.850449 11.617924 8.196803 -33.190571 -8.570493 11.495083 47.602859 -2.156559 -3.276329 -16.886497 4.218573 0.633420 
-0.975257 39.575871 -0.538027 2.535390 3.970730 -26.122900 -13.216700 -2.003580 -5.630140 17.845800 3.726310 -3.486480 22.115999 3.506230 -1.399370 18.238001 5.301610 0.320749 2.000000 -2.000000 0.000000 100.143997 -168.638000 2.126550 54.297401 -0.294634 0.111076 0.078843 -0.094885 -168.962997 -2.000000 2.000000 0.000000 -117.970001 120.328003 14.817500 -124.444000 0.143044 0.094941 -0.168878 0.163478 149.729004 -20.631332 11.176848 21.219225 55.230377 1.581878 3.695923 -28.691046 11.592154 8.153129 -33.260941 -8.337736 11.545644 47.602448 -2.157514 -3.266837 -16.794159 3.892194 0.557451 
